<svg xmlns="http://www.w3.org/2000/svg" xmlns:xlink="http://www.w3.org/1999/xlink" viewBox="0,0,256,256" width="64px" height="64px" fill-rule="nonzero"><g fill="none" fill-rule="nonzero" stroke="none" stroke-width="1" stroke-linecap="butt" stroke-linejoin="miter" stroke-miterlimit="10" stroke-dasharray="" stroke-dashoffset="0" font-family="none" font-weight="none" font-size="none" text-anchor="none" style="mix-blend-mode: normal"><g transform="scale(4,4)"><path d="M59.779,32.532c0.258,1.457 -0.129,3.744 -0.148,3.892c-0.055,0.609 -1.31,1.955 -4.427,1.789c-0.48,-0.037 -0.941,-0.148 -1.383,-0.35l-0.055,0.055c-0.148,0.148 -0.184,0.258 -0.646,0.258h-10.293c-0.166,0.018 -0.314,-0.092 -0.332,-0.258c-0.055,-0.166 -0.166,-0.664 -0.166,-0.664l-0.24,0.664c-0.037,0.166 -0.203,0.295 -0.387,0.258h-2.767c-0.037,0 -0.055,0 -0.092,-0.018c-0.092,-0.037 -0.129,-0.148 -0.092,-0.24c0.037,-0.166 0.203,-0.664 0.203,-0.664c-0.406,0.572 -1.07,0.922 -1.771,0.922h-0.295l-0.295,1.586c-0.018,0.184 -0.166,0.314 -0.332,0.332h-2.896c-0.172,0 -0.314,-0.141 -0.314,-0.314v-8.854l-1.125,-0.996v0.003c-0.062,0.902 -0.812,1.602 -1.716,1.602h-1.933c-0.874,0 -1.609,-0.655 -1.709,-1.524l-0.009,-0.081l-0.785,0.911c-0.38,0.441 -0.933,0.694 -1.515,0.694h-6.443c-0.256,0 -0.509,-0.049 -0.746,-0.144l-1.246,-0.501c0,0 0,0.147 0,0.148c0,0.274 -0.222,0.497 -0.496,0.499c-0.001,0 -3.101,0 -3.101,0c-0.362,0 -0.718,-0.099 -1.029,-0.285l-4.11,-2.466c-0.129,-0.101 -0.256,-0.2 -0.385,-0.301l-2.118,-2.118c-0.374,-0.375 -0.585,-0.884 -0.585,-1.414v-9.973c0,-1.105 0.895,-2 2,-2h2.831c0.792,0 1.552,0.313 2.115,0.872l2.018,2.006h13.096v-0.878c0,-1.105 0.895,-2 2,-2h6.883c1.105,0 2,0.895 2,2v0.877h1.277c0.884,0 1.6,0.716 1.6,1.6v0.005l1.019,-1.019c0.375,-0.375 0.884,-0.586 1.414,-0.586h2.363l1.999,-1.999c0.563,-0.563 1.326,-0.879 2.121,-0.879h2.844c1.105,0 2,0.895 2,2v0.877h2.695c0.53,0 1.039,0.211 1.414,0.586l1.708,1.708c0.374,0.374 0.585,0.881 0.586,1.41l0.015,7.693c0.001,0.67 -0.333,1.296 -0.891,1.668l-2.262,1.508c1.735,0 2.749,1.033 2.934,2.103z" fill="#cf316e"></path><path d="M37.165,31.063c-0.277,0 -0.553,0.055 -0.812,0.166c-0.259,0.111 -0.48,0.258 -0.682,0.443l-0.074,-0.24c-0.018,-0.129 -0.129,-0.221 -0.258,-0.203h-0.682c-0.074,0 -0.129,0.018 -0.184,0.055c-0.037,0.055 -0.055,0.111 -0.055,0.184v6.271c0,0.074 0.018,0.129 0.055,0.184c0.055,0.037 0.111,0.055 0.184,0.055l0.904,-0.018c0.037,0 0.055,0 0.092,0c0.111,-0.037 0.166,-0.129 0.148,-0.24v-2.066c0.166,0.148 0.369,0.258 0.59,0.332c0.24,0.092 0.48,0.129 0.738,0.129c0.369,0 0.738,-0.111 1.033,-0.314c0.314,-0.24 0.572,-0.553 0.719,-0.904c0.184,-0.424 0.277,-0.904 0.258,-1.365c0,-0.756 -0.184,-1.365 -0.535,-1.808c-0.333,-0.44 -0.886,-0.679 -1.439,-0.661zM37.497,34.752c-0.184,0.24 -0.48,0.369 -0.775,0.35c-0.332,0 -0.646,-0.074 -0.904,-0.24v-2.472c0.277,-0.166 0.59,-0.258 0.922,-0.258c0.295,-0.037 0.59,0.111 0.775,0.35c0.166,0.24 0.24,0.627 0.24,1.144c0,0.517 -0.092,0.886 -0.258,1.126zM42.938,31.192h-0.129c-0.258,0 -0.498,0.055 -0.719,0.166c-0.277,0.148 -0.516,0.35 -0.719,0.59l-0.129,-0.516c-0.018,-0.129 -0.129,-0.221 -0.258,-0.203h-0.684c-0.074,0 -0.129,0.018 -0.184,0.055c-0.037,0.055 -0.055,0.111 -0.055,0.184v4.335c0,0.018 0,0.055 0,0.074c0.018,0.111 0.129,0.184 0.24,0.166h0.904c0.074,0 0.129,-0.018 0.184,-0.055c0.037,-0.055 0.055,-0.111 0.055,-0.184v-3.136c0.184,-0.055 0.35,-0.111 0.535,-0.148c0.184,-0.037 0.35,-0.055 0.535,-0.055c0.092,-0.018 0.184,0 0.258,0c0.074,0 0.129,0 0.166,0c0.074,0.018 0.129,-0.018 0.184,-0.055c0.037,-0.055 0.055,-0.111 0.055,-0.184v-0.793c0.018,-0.074 -0.018,-0.129 -0.055,-0.184c-0.055,-0.038 -0.11,-0.057 -0.184,-0.057zM44.949,31.229h-0.904c-0.074,0 -0.129,0.018 -0.184,0.055c-0.037,0.055 -0.055,0.111 -0.055,0.184v4.335c0,0.018 0,0.055 0,0.074c0.018,0.111 0.129,0.184 0.24,0.166h0.904c0.074,0.018 0.129,-0.018 0.184,-0.055c0.037,-0.055 0.055,-0.111 0.055,-0.185v-4.335c0,-0.037 0,-0.055 0,-0.092c-0.038,-0.11 -0.13,-0.165 -0.24,-0.147zM43.934,29.218c-0.295,0.295 -0.295,0.775 0,1.07c0.166,0.148 0.369,0.221 0.572,0.203c0.203,0 0.424,-0.074 0.572,-0.203c0.295,-0.295 0.295,-0.775 0,-1.07c-0.332,-0.258 -0.812,-0.258 -1.144,0zM52.327,31.1c-0.314,0 -0.609,0.055 -0.885,0.148c-0.314,0.111 -0.627,0.277 -0.904,0.461c-0.24,-0.406 -0.627,-0.609 -1.199,-0.609c-0.295,0 -0.572,0.037 -0.83,0.129c-0.314,0.111 -0.627,0.277 -0.904,0.461l-0.074,-0.258c-0.018,-0.129 -0.129,-0.221 -0.258,-0.203h-0.683c-0.074,0 -0.129,0.018 -0.184,0.055c-0.037,0.055 -0.055,0.111 -0.055,0.184v4.335c0,0.018 0,0.055 0,0.074c0.018,0.111 0.129,0.184 0.24,0.166h0.904c0.074,0 0.129,-0.018 0.184,-0.055c0.037,-0.055 0.055,-0.111 0.055,-0.185v-3.412c0.314,-0.166 0.664,-0.258 1.033,-0.258c0.387,0 0.572,0.221 0.572,0.646v3.025c0,0.018 0,0.055 0,0.074c0.018,0.111 0.129,0.184 0.24,0.166h0.904c0.074,0.018 0.129,-0.018 0.184,-0.055c0.037,-0.055 0.055,-0.111 0.055,-0.185v-3.412c0.332,-0.148 0.682,-0.24 1.033,-0.24c0.387,0 0.572,0.221 0.572,0.646v3.025c0,0.018 0,0.055 0,0.074c0.018,0.111 0.129,0.184 0.24,0.166h0.904c0.074,0 0.129,-0.018 0.184,-0.055c0.037,-0.055 0.055,-0.111 0.055,-0.184v-3.32c0.018,-0.387 -0.111,-0.756 -0.369,-1.033c-0.276,-0.26 -0.645,-0.39 -1.014,-0.371zM58.506,34.918h-0.055l-0.055,0.018c-0.24,0.055 -0.461,0.111 -0.701,0.148c-0.166,0.018 -0.35,0.037 -0.516,0.037c-0.35,0.018 -0.682,-0.074 -0.978,-0.277c-0.221,-0.184 -0.35,-0.48 -0.387,-0.904c0.295,0.074 0.609,0.111 0.922,0.111c0.682,0 1.217,-0.129 1.568,-0.369c0.35,-0.24 0.553,-0.646 0.535,-1.07c0.018,-0.424 -0.166,-0.848 -0.498,-1.125c-0.332,-0.277 -0.775,-0.424 -1.365,-0.424c-0.775,0 -1.365,0.24 -1.789,0.701c-0.424,0.461 -0.646,1.107 -0.646,1.918c0,0.812 0.221,1.42 0.627,1.844c0.406,0.424 1.015,0.646 1.789,0.646c0.498,0.018 0.996,-0.074 1.512,-0.277c0.074,-0.018 0.129,-0.055 0.166,-0.111c0.037,-0.055 0.037,-0.129 0.037,-0.203v-0.443c0,-0.146 -0.055,-0.22 -0.166,-0.22zM56.864,32.041c0.461,0 0.701,0.203 0.701,0.59c0,0.166 -0.074,0.35 -0.221,0.443c-0.221,0.111 -0.461,0.166 -0.701,0.148c-0.277,0 -0.553,-0.018 -0.83,-0.074c0.092,-0.739 0.443,-1.107 1.051,-1.107zM10.692,17.13h-1.896v-1.878c0,-0.552 -0.448,-1 -1,-1h-1.505c-0.552,0 -1,0.448 -1,1v9.469c0,0.265 0.105,0.52 0.293,0.707l1.646,1.646c0.188,0.188 0.442,0.293 0.707,0.293h2.754c0.552,0 1,-0.448 1,-1v-1.505c0,-0.552 -0.448,-1 -1,-1h-1.895v-3.209h1.896c0.552,0 1,-0.448 1,-1v-1.523c0,-0.552 -0.448,-1 -1,-1zM25.079,17.13h-1.523c-0.552,0 -1,0.448 -1,1v5.733h-1.273v-5.733c0,-0.552 -0.448,-1 -1,-1h-1.523c-0.552,0 -1,0.448 -1,1v5.733h-1.273v-5.733c0,-0.552 -0.448,-1 -1,-1h-1.523c-0.552,0 -1,0.448 -1,1v8.237c0,0.552 0.448,1 1,1h9.469c0.265,0 0.52,-0.105 0.707,-0.293l1.646,-1.646c0.188,-0.188 0.293,-0.442 0.293,-0.707v-6.591c0,-0.552 -0.448,-1 -1,-1zM29.875,17.13h-1.523c-0.552,0 -1,0.448 -1,1v8.237c0,0.552 0.448,1 1,1h1.523c0.552,0 1,-0.448 1,-1v-8.237c0,-0.552 -0.448,-1 -1,-1zM30.075,14.253h-1.923c-0.442,0 -0.8,0.358 -0.8,0.8v0.005c0,0.442 0.358,0.8 0.8,0.8h1.923c0.442,0 0.8,-0.358 0.8,-0.8v-0.005c0,-0.442 -0.358,-0.8 -0.8,-0.8zM37.548,27.367c0.552,0 1,-0.448 1,-1v-1.505c0,-0.552 -0.448,-1 -1,-1h-1.878v-3.209h1.878c0.552,0 1,-0.448 1,-1v-1.523c0,-0.552 -0.448,-1 -1,-1h-1.878v-1.878c0,-0.552 -0.448,-1 -1,-1h-1.523c-0.552,0 -1,0.448 -1,1v9.466c0,0.267 0.106,0.522 0.296,0.71l1.662,1.648c0.187,0.186 0.44,0.29 0.704,0.29h2.739c0,0 0,0.001 0,0.001zM41.778,27.074c0.188,0.188 0.442,0.293 0.707,0.293h4.027c0.552,0 1,-0.448 1,-1v-1.505c0,-0.552 -0.448,-1 -1,-1h-3.169v-3.209h3.169c0.552,0 1,-0.448 1,-1v-1.523c0,-0.552 -0.448,-1 -1,-1h-4.025c-0.267,0 -0.522,0.107 -0.71,0.296l-1.648,1.662c-0.186,0.187 -0.29,0.44 -0.29,0.704v4.929c0,0.265 0.105,0.52 0.293,0.707zM49.785,27.367h1.523c0.552,0 1,-0.448 1,-1v-5.714h2.878v5.714c0,0.552 0.448,1 1,1h1.523c0.552,0 1,-0.448 1,-1v-6.573c0,-0.265 -0.105,-0.52 -0.293,-0.707l-1.665,-1.665c-0.188,-0.188 -0.442,-0.293 -0.707,-0.293h-3.736v-1.878c0,-0.552 -0.448,-1 -1,-1h-1.523c-0.552,0 -1,0.448 -1,1v11.115c0,0.554 0.448,1.001 1,1.001z" fill="#fff7f0"></path><g fill="#cf316e"><path d="M7,51.02c-0.552,0 -1,-0.448 -1,-1v-2c0,-0.552 0.448,-1 1,-1c0.552,0 1,0.448 1,1v2c0,0.552 -0.448,1 -1,1zM12,51.02c-0.552,0 -1,-0.448 -1,-1v-2c0,-0.552 0.448,-1 1,-1c0.552,0 1,0.448 1,1v2c0,0.552 -0.448,1 -1,1zM17,51.02c-0.552,0 -1,-0.448 -1,-1v-2c0,-0.552 0.448,-1 1,-1c0.552,0 1,0.448 1,1v2c0,0.552 -0.448,1 -1,1zM22,51.02c-0.552,0 -1,-0.448 -1,-1v-2c0,-0.552 0.448,-1 1,-1c0.552,0 1,0.448 1,1v2c0,0.552 -0.448,1 -1,1zM27,51.02c-0.552,0 -1,-0.448 -1,-1v-2c0,-0.552 0.448,-1 1,-1c0.552,0 1,0.448 1,1v2c0,0.552 -0.448,1 -1,1zM32,51.02c-0.552,0 -1,-0.448 -1,-1v-2c0,-0.552 0.448,-1 1,-1c0.552,0 1,0.448 1,1v2c0,0.552 -0.448,1 -1,1zM37,51.02c-0.552,0 -1,-0.448 -1,-1v-2c0,-0.552 0.448,-1 1,-1c0.552,0 1,0.448 1,1v2c0,0.552 -0.448,1 -1,1zM42,51.02c-0.552,0 -1,-0.448 -1,-1v-2c0,-0.552 0.448,-1 1,-1c0.552,0 1,0.448 1,1v2c0,0.552 -0.448,1 -1,1zM47,51.02c-0.552,0 -1,-0.448 -1,-1v-2c0,-0.552 0.448,-1 1,-1c0.552,0 1,0.448 1,1v2c0,0.552 -0.448,1 -1,1zM52,51.02c-0.552,0 -1,-0.448 -1,-1v-2c0,-0.552 0.448,-1 1,-1c0.552,0 1,0.448 1,1v2c0,0.552 -0.448,1 -1,1zM57,51.02c-0.552,0 -1,-0.448 -1,-1v-2c0,-0.552 0.448,-1 1,-1c0.552,0 1,0.448 1,1v2c0,0.552 -0.448,1 -1,1z"></path></g></g></g></svg>